<svg width="256" height="256" viewBox="0 0 256 256" fill="none" xmlns="http://www.w3.org/2000/svg">
<g clip-path="url(#clip0_287_2)">
<rect width="256" height="256" fill="url(#paint0_radial_287_2)"/>
<mask id="mask0_287_2" style="mask-type:alpha" maskUnits="userSpaceOnUse" x="33" y="33" width="191" height="191">
<rect x="33" y="33" width="191" height="191" fill="#D9D9D9"/>
</mask>
<g mask="url(#mask0_287_2)">
<g filter="url(#filter0_d_287_2)">
<path d="M95.274 216.042C92.0906 216.042 89.0399 215.445 86.1219 214.251C83.2038 213.057 80.6174 211.333 78.3625 209.078C78.3625 209.078 47.5 172.5 46 166.5C44.5 160.5 48 157.747 48 157.747C49.8569 155.89 52.5 156.5 55.5 156.5C60 156.5 61 157.747 63 159.5L72.7917 172V96.6667C72.7917 94.4118 73.5543 92.5217 75.0797 90.9964C76.605 89.471 78.4951 88.7084 80.75 88.7084C83.0049 88.7084 84.895 89.471 86.4203 90.9964C87.9457 92.5217 88.7083 94.4118 88.7083 96.6667V152.375H96.6667V128.5C96.6667 126.245 96.9747 120.525 98.5 119C100.025 117.475 102.37 116 104.625 116C106.88 116 109.975 117.475 111.5 119C113.025 120.525 112.583 126.245 112.583 128.5V152.375H120.542V136.458C120.542 134.203 120.975 128.025 122.5 126.5C124.025 124.975 126.245 122.83 128.5 122.83C130.755 122.83 133.475 123.475 135 125C136.525 126.525 136.458 134.203 136.458 136.458V152.375H144.417C144.417 150.12 144.475 134.025 146 132.5C147.525 130.975 148.745 129.5 151 129.5C153.255 129.5 160.333 129 160.333 138C160.333 143 160.333 150.12 160.333 152.375V184.208C160.333 192.963 157.216 200.457 150.982 206.691C144.748 212.925 137.254 216.042 128.5 216.042H95.274ZM160.333 120.542C148.263 120.542 137.122 117.358 126.908 110.992C116.695 104.625 109.267 95.8709 104.625 84.7292C109.267 73.5875 116.695 64.8334 126.908 58.4667C137.122 52.1 148.263 48.9167 160.333 48.9167C172.403 48.9167 183.545 52.1 193.758 58.4667C203.972 64.8334 211.399 73.5875 216.042 84.7292C211.399 95.8709 203.972 104.625 193.758 110.992C183.545 117.358 172.403 120.542 160.333 120.542ZM160.333 104.625C165.904 104.625 170.613 102.702 174.459 98.8552C178.306 95.0087 180.229 90.3 180.229 84.7292C180.229 79.1584 178.306 74.4497 174.459 70.6031C170.613 66.7566 165.904 64.8334 160.333 64.8334C154.763 64.8334 150.054 66.7566 146.207 70.6031C142.361 74.4497 140.438 79.1584 140.438 84.7292C140.438 90.3 142.361 95.0087 146.207 98.8552C150.054 102.702 154.763 104.625 160.333 104.625ZM160.333 96.6667C157.017 96.6667 154.199 95.5061 151.878 93.1849C149.556 90.8637 148.396 88.0452 148.396 84.7292C148.396 81.4132 149.556 78.5946 151.878 76.2735C154.199 73.9523 157.017 72.7917 160.333 72.7917C163.649 72.7917 166.468 73.9523 168.789 76.2735C171.11 78.5946 172.271 81.4132 172.271 84.7292C172.271 88.0452 171.11 90.8637 168.789 93.1849C166.468 95.5061 163.649 96.6667 160.333 96.6667Z" fill="white"/>
</g>
</g>
</g>
<defs>
<filter id="filter0_d_287_2" x="43.6263" y="48.9167" width="178.415" height="175.125" filterUnits="userSpaceOnUse" color-interpolation-filters="sRGB">
<feFlood flood-opacity="0" result="BackgroundImageFix"/>
<feColorMatrix in="SourceAlpha" type="matrix" values="0 0 0 0 0 0 0 0 0 0 0 0 0 0 0 0 0 0 127 0" result="hardAlpha"/>
<feOffset dx="2" dy="4"/>
<feGaussianBlur stdDeviation="2"/>
<feComposite in2="hardAlpha" operator="out"/>
<feColorMatrix type="matrix" values="0 0 0 0 0 0 0 0 0 0 0 0 0 0 0 0 0 0 0.25 0"/>
<feBlend mode="normal" in2="BackgroundImageFix" result="effect1_dropShadow_287_2"/>
<feBlend mode="normal" in="SourceGraphic" in2="effect1_dropShadow_287_2" result="shape"/>
</filter>
<radialGradient id="paint0_radial_287_2" cx="0" cy="0" r="1" gradientUnits="userSpaceOnUse" gradientTransform="translate(128 128) rotate(90) scale(128)">
<stop stop-color="#5856FF"/>
<stop offset="1" stop-color="#0401FF"/>
</radialGradient>
<clipPath id="clip0_287_2">
<rect width="256" height="256" rx="128" fill="white"/>
</clipPath>
</defs>
</svg>
